<?xml version="1.0" encoding="UTF-8"?>
<svg id="Layer_2" xmlns="http://www.w3.org/2000/svg" viewBox="0 0 311.98 394.58">
  <defs>
    <style>
      .cls-1 {
        fill: #231f20;
      }

      .cls-2 {
        fill: #010202;
      }
    </style>
  </defs>
  <g id="Layer_2-2" data-name="Layer_2">
    <g>
      <path d="M132.31,348.08h-3v-155.88c0-1.45-.38-2.54-1.18-3.34-1.33-1.32-3.88-1.96-7.56-1.9-3.92.01-6.59.73-7.94,2.14-.84.88-1.23,2.08-1.17,3.68v10.21s-13.9,0-13.9,0v-10.41c-.4-3.94-2.68-5.69-7.47-5.63-3.01-.08-5.38.66-6.77,2.08-.99,1.01-1.45,2.37-1.37,4.04v10.23s-14.54,0-14.54,0v-10.16c.01-1.82-.45-3.18-1.42-4.16-1.34-1.35-3.7-2.04-7.02-2.04-8.19.22-9.11,4.37-9.08,7.47v152.37h-3v-152.35c-.04-4.63,2.02-10.22,12.05-10.48,4.19,0,7.27.99,9.19,2.93,1.54,1.55,2.31,3.66,2.29,6.28v7.15h8.55v-7.16c-.12-2.42.64-4.59,2.22-6.21,1.98-2.03,5.16-3.08,8.94-2.99,7.93-.09,10.06,4.53,10.44,8.41v.14s0,7.48,0,7.48h7.91v-7.16c-.09-2.36.59-4.34,2-5.81,1.96-2.04,5.26-3.05,10.07-3.06,4.56-.06,7.74.83,9.7,2.77,1.39,1.38,2.09,3.22,2.07,5.48v155.87Z"/>
      <path d="M89.37,260.01l-.57-.29c-4.99-3.17-14.02-9.5-18.38-16.21-.39-.61-1.13-1.9-1.64-3.75-1.13-4.11-.6-8.67,1.38-11.88,1.43-2.31,3.5-3.8,5.98-4.3l.18-.04c5.29-1.25,8.72.09,10.66,1.44,1.17.81,2.04,1.88,2.69,2.92.73-1.23,1.62-2.22,2.64-2.93,1.94-1.35,5.37-2.69,10.67-1.43l.18.04c2.49.5,4.56,1.99,5.98,4.3,1.98,3.21,2.51,7.76,1.38,11.88-.51,1.85-1.24,3.14-1.64,3.75-4.37,6.71-13.39,13.04-18.38,16.21l-.27.17-.87.13ZM80.39,226.03c-1.04,0-2.17.14-3.37.43l-.28.06c-1.68.34-3.03,1.33-4.02,2.94-1.53,2.49-1.94,6.22-1.04,9.51.4,1.46.96,2.45,1.26,2.9,3.85,5.91,11.82,11.65,16.71,14.82,4.89-3.17,12.88-8.91,16.73-14.84.3-.46.86-1.44,1.26-2.9.9-3.29.49-7.02-1.04-9.51-.99-1.61-2.35-2.6-4.02-2.94l-.27-.06c-3.39-.8-6.17-.47-8.26.98-1.21.84-2.22,2.44-2.83,4.5l-.3,1.01-2.24.13-.42-1.13c-.09-.32-.97-3.12-2.95-4.49-1.35-.94-2.99-1.41-4.89-1.41Z"/>
      <path d="M171.3,173.2H7.61l.32-25.47h163.37v25.47ZM10.64,170.2h157.66v-19.47H10.89l-.25,19.47Z"/>
      <rect x="10.12" y="161.95" width="159.54" height="3"/>
      <polygon points="122.1 149.52 119.1 149.52 119.1 118.88 61.81 118.88 61.81 149.52 58.81 149.52 58.81 115.88 122.1 115.88 122.1 149.52"/>
      <path d="M122.1,117.4l-3-.05c.12-8-2.97-15.56-8.71-21.26-5.49-5.46-12.83-8.63-19.62-8.5-12.2.25-29.24,9.65-28.96,29.76l-3,.04c-.28-20.12,16-32.48,31.9-32.8,7.62-.18,15.75,3.35,21.8,9.37,6.32,6.29,9.72,14.61,9.59,23.43Z"/>
      <rect class="cls-2" x="13.03" y="172.27" width="3" height="159.54"/>
      <rect x="164.04" y="172.55" width="3" height="157.83"/>
      <path class="cls-2" d="M33.1,339.49h-3v-141.05c0-4.1-1.2-7.12-3.56-8.97-4.82-3.78-12.99-1.82-13.07-1.8l-.72-2.91c.39-.1,9.68-2.31,15.64,2.35,3.12,2.45,4.71,6.26,4.71,11.33v141.05Z"/>
      <path d="M149.54,340.05h-3v-141.05c0-5.07,1.58-8.88,4.71-11.33,5.95-4.67,15.25-2.45,15.64-2.35l-.71,2.91c-.08-.02-8.28-1.96-13.08,1.81-2.35,1.85-3.55,4.87-3.55,8.96v141.05Z"/>
      <path d="M70.48,116.93c-.02-.27-1.86-26.62,18.17-32l.78,2.9c-17.61,4.73-15.98,28.62-15.96,28.86l-2.99.23Z"/>
      <path d="M108.82,116.73l-2.99-.23c.02-.24,1.65-24.13-15.96-28.86l.78-2.9c20.03,5.38,18.19,31.73,18.17,32Z"/>
      <path d="M89.98,324.5c-.33,0-.65,0-.98-.01-7.19-.2-14.26-3.66-19.39-9.51-5.15-5.87-7.57-13.18-6.8-20.58,1.39-13.46,13.77-24.38,27.6-24.38h.06c10.48.02,17.75,6.35,21.3,10.37l.24-2.74,2.99.26-.94,10.85-2.37-3.62c-.81-1.24-8.3-12.09-21.22-12.12h-.05c-12.34,0-23.38,9.72-24.62,21.69-.68,6.56,1.48,13.05,6.08,18.29,4.58,5.22,10.86,8.32,17.21,8.49,9.88.24,16.98-3.76,21.08-11.97l2.68,1.34c-4.47,8.94-12.36,13.64-22.87,13.64Z"/>
      <path d="M94.23,317.02h-3v-14.6l-22.95.2,25.95-28.75v25.52l9.86-.09.03,3-9.89.09v14.62ZM91.23,281.68l-16.14,17.89,16.14-.14v-17.75Z"/>
      <rect x="87.33" y="314.67" width="10.52" height="3"/>
      <rect x="101.76" y="295.12" width="3" height="10.52"/>
      <rect x="88.39" y="85.27" width="3" height="32.96"/>
      <path d="M10.55,93.11l3.29-17.45L0,64.42l17.94-.11,7.05-15.49,7.27,15.39h15.87l-12.01,11.33,1.95,17.02-13.6-9.21-13.92,9.76ZM8.39,67.37l8.73,7.08-2.26,11.97,9.58-6.71,9.9,6.71-1.38-12.03,7.61-7.18h-10.22l-5.32-11.26-5.16,11.34-11.48.07Z"/>
      <g>
        <path class="cls-1" d="M188.89,41.94l-4.12-2.41-.09-11.18c0-1.03-.06-1.95-.17-2.74-.11-.79-.28-1.49-.53-2.09s-.58-1.14-1-1.6c-.42-.46-.96-.88-1.6-1.26l-2.84-1.67-7.36,12.56-3.46-2.03L185.03,0l8.81,5.17c1.29.76,2.39,1.62,3.29,2.58s1.56,2.01,1.98,3.14c.42,1.13.56,2.32.44,3.57s-.57,2.53-1.34,3.85c-.6,1.03-1.31,1.88-2.12,2.56-.81.68-1.7,1.19-2.66,1.52-.96.34-1.99.51-3.07.51s-2.2-.16-3.35-.49l-.05.08c.37.51.65,1.01.85,1.51s.35,1.03.46,1.61c.1.58.17,1.2.21,1.88.04.68.06,1.45.08,2.33l.34,12.12ZM186.65,5.16l-6.28,10.71,4.7,2.75c.87.51,1.74.85,2.63,1.01.89.17,1.74.17,2.56,0,.82-.17,1.59-.52,2.31-1.06.72-.53,1.33-1.23,1.85-2.11.93-1.58,1.14-3.11.63-4.6-.5-1.49-1.72-2.79-3.66-3.93l-4.74-2.78Z"/>
        <path class="cls-1" d="M228.55,58.31c-6.59,7-13.04,7.52-19.36,1.57-6.04-5.7-5.9-11.91.44-18.64l14.36-15.23,2.92,2.75-14.18,15.04c-4.81,5.11-5.07,9.69-.76,13.75,4.16,3.92,8.56,3.41,13.21-1.52l14.42-15.3,2.92,2.75-13.98,14.84Z"/>
        <path class="cls-1" d="M246.53,105.83l-2.72-4.1,13-29.76c.32-.75.72-1.45,1.18-2.1l-.08-.12c-.54.51-1.81,1.43-3.81,2.76l-20.61,13.67-2.22-3.34,28.53-18.92,2.88,4.34-12.91,29.13c-.53,1.21-.91,2.02-1.14,2.42l.05.08c.73-.68,2.09-1.67,4.07-2.98l20.09-13.32,2.22,3.34-28.53,18.92Z"/>
        <path class="cls-1" d="M255.39,123.23l31.81-12.65,3.49,8.78c4.46,11.21,1.52,18.87-8.82,22.98-4.91,1.95-9.47,1.97-13.69.04-4.22-1.93-7.36-5.5-9.44-10.72l-3.35-8.43ZM285.31,115.64l-25.06,9.97,1.89,4.75c1.66,4.17,4.07,6.97,7.22,8.41,3.16,1.43,6.78,1.34,10.88-.29,8.15-3.24,10.5-9.19,7.05-17.86l-1.98-4.97Z"/>
        <path class="cls-1" d="M273.97,183.55l-3.85-17.73,33.45-7.27,3.69,16.98-3.55.77-2.84-13.06-11.13,2.42,2.63,12.08-3.52.77-2.63-12.08-11.71,2.55,3,13.81-3.54.77Z"/>
        <path class="cls-1" d="M308.36,219.08l-.72-9.86-30.52,2.24-.29-4,30.52-2.24-.72-9.83,3.62-.27,1.74,23.69-3.62.26Z"/>
        <path class="cls-1" d="M276.1,260.53l.29-4.43,9.82-2.98.96-14.48-9.35-4.04.29-4.45,33.29,15.37-.28,4.14-35.03,10.88ZM289.89,252.05l14.91-4.39c.49-.14,1.26-.27,2.32-.37v-.09c-.95-.22-1.7-.46-2.24-.7l-14.2-6.28-.79,11.84Z"/>
        <path class="cls-1" d="M267.08,301.87l1.06-4.31,10.18-1.24,3.46-14.1-8.51-5.6,1.06-4.34,30.12,20.91-.99,4.03-36.38,4.64ZM282.14,295.9l15.45-1.74c.51-.06,1.29-.04,2.35.04l.02-.09c-.9-.39-1.6-.75-2.09-1.08l-12.9-8.65-2.83,11.52Z"/>
        <path class="cls-1" d="M251.22,338.83l2-4.33,11.12-1.17c1.03-.1,1.93-.25,2.71-.43.78-.18,1.46-.43,2.03-.73.58-.3,1.08-.69,1.49-1.15s.78-1.04,1.1-1.71l1.38-2.99-13.22-6.11,1.68-3.64,31.07,14.37-4.29,9.27c-.63,1.36-1.38,2.53-2.25,3.52-.87.99-1.85,1.75-2.93,2.27s-2.25.79-3.51.78c-1.25,0-2.57-.32-3.96-.96-1.08-.5-2-1.12-2.75-1.87-.75-.74-1.34-1.58-1.77-2.5s-.7-1.93-.81-3c-.11-1.08-.05-2.2.16-3.38l-.09-.04c-.47.41-.94.74-1.42.99-.47.25-.99.45-1.56.61-.56.16-1.18.29-1.85.39-.67.1-1.44.21-2.31.31l-12.03,1.51ZM287.62,333.05l-11.27-5.21-2.29,4.94c-.42.91-.67,1.81-.76,2.71-.08.9,0,1.75.25,2.55.25.8.68,1.53,1.27,2.19.6.66,1.36,1.21,2.28,1.63,1.66.77,3.21.83,4.64.19,1.43-.65,2.62-1.99,3.56-4.02l2.31-4.98Z"/>
        <path class="cls-1" d="M226.14,373.16l3.08-3.84,32.31,3.33c.81.08,1.6.24,2.36.49l.09-.11c-.65-.36-1.91-1.29-3.79-2.79l-19.29-15.47,2.51-3.13,26.7,21.42-3.26,4.06-31.67-3.43c-1.32-.14-2.2-.26-2.65-.35l-.06.07c.87.49,2.23,1.48,4.08,2.96l18.81,15.08-2.51,3.13-26.7-21.42Z"/>
      </g>
    </g>
  </g>
</svg>